<mxfile host="app.diagrams.net" modified="2023-01-24T12:31:20.261Z" agent="5.0 (Windows NT 10.0; Win64; x64) AppleWebKit/537.36 (KHTML, like Gecko) Chrome/109.0.0.0 Safari/537.36 Edg/109.0.1518.61" etag="DHxEr5K20H7Bvr_zv6K8" version="20.8.10" type="github">
  <diagram name="Page-1" id="0DltIGVHzBighsgFJJzK">
    <mxGraphModel dx="880" dy="476" grid="1" gridSize="10" guides="1" tooltips="1" connect="1" arrows="1" fold="1" page="1" pageScale="1" pageWidth="850" pageHeight="1100" math="0" shadow="0">
      <root>
        <mxCell id="0" />
        <mxCell id="1" parent="0" />
        <mxCell id="o3EgWP7yJ_ElLhDA_DKD-3" value="" style="edgeStyle=orthogonalEdgeStyle;rounded=0;orthogonalLoop=1;jettySize=auto;html=1;" edge="1" parent="1" source="o3EgWP7yJ_ElLhDA_DKD-1" target="o3EgWP7yJ_ElLhDA_DKD-2">
          <mxGeometry relative="1" as="geometry" />
        </mxCell>
        <mxCell id="o3EgWP7yJ_ElLhDA_DKD-1" value="hi" style="ellipse;whiteSpace=wrap;html=1;" vertex="1" parent="1">
          <mxGeometry x="170" y="60" width="120" height="80" as="geometry" />
        </mxCell>
        <mxCell id="o3EgWP7yJ_ElLhDA_DKD-5" style="edgeStyle=orthogonalEdgeStyle;rounded=0;orthogonalLoop=1;jettySize=auto;html=1;exitX=0.5;exitY=1;exitDx=0;exitDy=0;" edge="1" parent="1" source="o3EgWP7yJ_ElLhDA_DKD-2" target="o3EgWP7yJ_ElLhDA_DKD-4">
          <mxGeometry relative="1" as="geometry" />
        </mxCell>
        <mxCell id="o3EgWP7yJ_ElLhDA_DKD-2" value="hi" style="whiteSpace=wrap;html=1;" vertex="1" parent="1">
          <mxGeometry x="170" y="230" width="120" height="60" as="geometry" />
        </mxCell>
        <mxCell id="o3EgWP7yJ_ElLhDA_DKD-4" value="hi" style="ellipse;whiteSpace=wrap;html=1;" vertex="1" parent="1">
          <mxGeometry x="190" y="330" width="80" height="80" as="geometry" />
        </mxCell>
      </root>
    </mxGraphModel>
  </diagram>
</mxfile>
